M48
; DRILL file {KiCad 9.0.0} date 2025-05-15T14:35:56+0700
; FORMAT={-:-/ absolute / metric / decimal}
; #@! TF.CreationDate,2025-05-15T14:35:56+07:00
; #@! TF.GenerationSoftware,Kicad,Pcbnew,9.0.0
; #@! TF.FileFunction,Plated,1,2,PTH
FMAT,2
METRIC
; #@! TA.AperFunction,Plated,PTH,ComponentDrill
T1C1.000
%
G90
G05
T1
X134.5Y-57.2
X134.5Y-59.74
X134.5Y-62.28
X134.5Y-64.82
X138.2Y-52.0
X140.74Y-52.0
X143.28Y-52.0
X145.82Y-52.0
X148.5Y-58.42
X148.5Y-60.96
X148.5Y-63.5
X161.5Y-57.2
X161.5Y-59.74
X161.5Y-62.28
X161.5Y-64.82
X164.7Y-52.0
X167.24Y-52.0
X169.78Y-52.0
X172.32Y-52.0
X175.0Y-58.46
X175.0Y-61.0
X175.0Y-63.54
X189.5Y-57.2
X189.5Y-59.74
X189.5Y-62.28
X189.5Y-64.82
X192.7Y-52.0
X195.24Y-52.0
X197.78Y-52.0
X200.32Y-52.0
X203.5Y-58.46
X203.5Y-61.0
X203.5Y-63.54
M30
