%TF.GenerationSoftware,KiCad,Pcbnew,9.0.0*%
%TF.CreationDate,2025-05-17T14:57:31+07:00*%
%TF.ProjectId,PCB AS5600 satuan,50434220-4153-4353-9630-302073617475,rev?*%
%TF.SameCoordinates,Original*%
%TF.FileFunction,Legend,Top*%
%TF.FilePolarity,Positive*%
%FSLAX46Y46*%
G04 Gerber Fmt 4.6, Leading zero omitted, Abs format (unit mm)*
G04 Created by KiCad (PCBNEW 9.0.0) date 2025-05-17 14:57:31*
%MOMM*%
%LPD*%
G01*
G04 APERTURE LIST*
%ADD10C,0.150000*%
%ADD11C,0.120000*%
G04 APERTURE END LIST*
D10*
X100266666Y-56224819D02*
X100266666Y-56939104D01*
X100266666Y-56939104D02*
X100219047Y-57081961D01*
X100219047Y-57081961D02*
X100123809Y-57177200D01*
X100123809Y-57177200D02*
X99980952Y-57224819D01*
X99980952Y-57224819D02*
X99885714Y-57224819D01*
X101266666Y-57224819D02*
X100695238Y-57224819D01*
X100980952Y-57224819D02*
X100980952Y-56224819D01*
X100980952Y-56224819D02*
X100885714Y-56367676D01*
X100885714Y-56367676D02*
X100790476Y-56462914D01*
X100790476Y-56462914D02*
X100695238Y-56510533D01*
X114266666Y-57444819D02*
X114266666Y-58159104D01*
X114266666Y-58159104D02*
X114219047Y-58301961D01*
X114219047Y-58301961D02*
X114123809Y-58397200D01*
X114123809Y-58397200D02*
X113980952Y-58444819D01*
X113980952Y-58444819D02*
X113885714Y-58444819D01*
X114695238Y-57540057D02*
X114742857Y-57492438D01*
X114742857Y-57492438D02*
X114838095Y-57444819D01*
X114838095Y-57444819D02*
X115076190Y-57444819D01*
X115076190Y-57444819D02*
X115171428Y-57492438D01*
X115171428Y-57492438D02*
X115219047Y-57540057D01*
X115219047Y-57540057D02*
X115266666Y-57635295D01*
X115266666Y-57635295D02*
X115266666Y-57730533D01*
X115266666Y-57730533D02*
X115219047Y-57873390D01*
X115219047Y-57873390D02*
X114647619Y-58444819D01*
X114647619Y-58444819D02*
X115266666Y-58444819D01*
X101424819Y-54233333D02*
X102139104Y-54233333D01*
X102139104Y-54233333D02*
X102281961Y-54280952D01*
X102281961Y-54280952D02*
X102377200Y-54376190D01*
X102377200Y-54376190D02*
X102424819Y-54519047D01*
X102424819Y-54519047D02*
X102424819Y-54614285D01*
X101424819Y-53852380D02*
X101424819Y-53233333D01*
X101424819Y-53233333D02*
X101805771Y-53566666D01*
X101805771Y-53566666D02*
X101805771Y-53423809D01*
X101805771Y-53423809D02*
X101853390Y-53328571D01*
X101853390Y-53328571D02*
X101901009Y-53280952D01*
X101901009Y-53280952D02*
X101996247Y-53233333D01*
X101996247Y-53233333D02*
X102234342Y-53233333D01*
X102234342Y-53233333D02*
X102329580Y-53280952D01*
X102329580Y-53280952D02*
X102377200Y-53328571D01*
X102377200Y-53328571D02*
X102424819Y-53423809D01*
X102424819Y-53423809D02*
X102424819Y-53709523D01*
X102424819Y-53709523D02*
X102377200Y-53804761D01*
X102377200Y-53804761D02*
X102329580Y-53852380D01*
D11*
%TO.C,J1*%
X99270000Y-57770000D02*
X100600000Y-57770000D01*
X99270000Y-59100000D02*
X99270000Y-57770000D01*
X99270000Y-60370000D02*
X99270000Y-68050000D01*
X99270000Y-60370000D02*
X101930000Y-60370000D01*
X99270000Y-68050000D02*
X101930000Y-68050000D01*
X101930000Y-60370000D02*
X101930000Y-68050000D01*
%TO.C,J2*%
X113270000Y-58990000D02*
X114600000Y-58990000D01*
X113270000Y-60320000D02*
X113270000Y-58990000D01*
X113270000Y-61590000D02*
X113270000Y-66730000D01*
X113270000Y-61590000D02*
X115930000Y-61590000D01*
X113270000Y-66730000D02*
X115930000Y-66730000D01*
X115930000Y-61590000D02*
X115930000Y-66730000D01*
%TO.C,J3*%
X102970000Y-55230000D02*
X102970000Y-53900000D01*
X104300000Y-55230000D02*
X102970000Y-55230000D01*
X105570000Y-52570000D02*
X113250000Y-52570000D01*
X105570000Y-55230000D02*
X105570000Y-52570000D01*
X105570000Y-55230000D02*
X113250000Y-55230000D01*
X113250000Y-55230000D02*
X113250000Y-52570000D01*
%TD*%
M02*
