%TF.GenerationSoftware,KiCad,Pcbnew,9.0.0*%
%TF.CreationDate,2025-05-17T14:57:31+07:00*%
%TF.ProjectId,PCB AS5600 satuan,50434220-4153-4353-9630-302073617475,rev?*%
%TF.SameCoordinates,Original*%
%TF.FileFunction,Copper,L2,Bot*%
%TF.FilePolarity,Positive*%
%FSLAX46Y46*%
G04 Gerber Fmt 4.6, Leading zero omitted, Abs format (unit mm)*
G04 Created by KiCad (PCBNEW 9.0.0) date 2025-05-17 14:57:31*
%MOMM*%
%LPD*%
G01*
G04 APERTURE LIST*
%TA.AperFunction,ComponentPad*%
%ADD10R,1.700000X1.700000*%
%TD*%
%TA.AperFunction,ComponentPad*%
%ADD11O,1.700000X1.700000*%
%TD*%
%TA.AperFunction,Conductor*%
%ADD12C,1.000000*%
%TD*%
G04 APERTURE END LIST*
D10*
%TO.P,J1,1,Pin_1*%
%TO.N,DIR1*%
X100600000Y-59100000D03*
D11*
%TO.P,J1,2,Pin_2*%
%TO.N,SCL1*%
X100600000Y-61640000D03*
%TO.P,J1,3,Pin_3*%
%TO.N,SDA1*%
X100600000Y-64180000D03*
%TO.P,J1,4,Pin_4*%
%TO.N,GPO1*%
X100600000Y-66720000D03*
%TD*%
D10*
%TO.P,J2,1,Pin_1*%
%TO.N,VCC1*%
X114600000Y-60320000D03*
D11*
%TO.P,J2,2,Pin_2*%
%TO.N,OUT1*%
X114600000Y-62860000D03*
%TO.P,J2,3,Pin_3*%
%TO.N,DIR1*%
X114600000Y-65400000D03*
%TD*%
D10*
%TO.P,J3,1,Pin_1*%
%TO.N,VCC1*%
X104300000Y-53900000D03*
D11*
%TO.P,J3,2,Pin_2*%
%TO.N,SCL1*%
X106840000Y-53900000D03*
%TO.P,J3,3,Pin_3*%
%TO.N,SDA1*%
X109380000Y-53900000D03*
%TO.P,J3,4,Pin_4*%
%TO.N,DIR1*%
X111920000Y-53900000D03*
%TD*%
D12*
%TO.N,DIR1*%
X107780000Y-60580000D02*
X106300000Y-59100000D01*
%TO.N,VCC1*%
X104300000Y-55700000D02*
X105600000Y-57000000D01*
X105600000Y-57000000D02*
X113200000Y-57000000D01*
X113200000Y-57000000D02*
X114600000Y-58400000D01*
%TO.N,DIR1*%
X117400000Y-54900000D02*
X116400000Y-53900000D01*
X116400000Y-53900000D02*
X111920000Y-53900000D01*
X106300000Y-59100000D02*
X100600000Y-59100000D01*
%TO.N,VCC1*%
X104300000Y-53900000D02*
X104300000Y-55700000D01*
X114600000Y-58400000D02*
X114600000Y-60320000D01*
%TO.N,DIR1*%
X117400000Y-64700000D02*
X117400000Y-54900000D01*
X116660000Y-65440000D02*
X116620000Y-65400000D01*
X116660000Y-65440000D02*
X117400000Y-64700000D01*
X116620000Y-65400000D02*
X114600000Y-65400000D01*
X107780000Y-63900000D02*
X107780000Y-60580000D01*
X109280000Y-65400000D02*
X107780000Y-63900000D01*
X114600000Y-65400000D02*
X109280000Y-65400000D01*
%TD*%
M02*
