%TF.GenerationSoftware,KiCad,Pcbnew,9.0.0*%
%TF.CreationDate,2025-05-15T14:39:23+07:00*%
%TF.ProjectId,PCB AS5600,50434220-4153-4353-9630-302e6b696361,rev?*%
%TF.SameCoordinates,Original*%
%TF.FileFunction,Copper,L2,Bot*%
%TF.FilePolarity,Positive*%
%FSLAX46Y46*%
G04 Gerber Fmt 4.6, Leading zero omitted, Abs format (unit mm)*
G04 Created by KiCad (PCBNEW 9.0.0) date 2025-05-15 14:39:23*
%MOMM*%
%LPD*%
G01*
G04 APERTURE LIST*
%TA.AperFunction,ComponentPad*%
%ADD10R,1.700000X1.700000*%
%TD*%
%TA.AperFunction,ComponentPad*%
%ADD11O,1.700000X1.700000*%
%TD*%
%TA.AperFunction,Conductor*%
%ADD12C,1.000000*%
%TD*%
G04 APERTURE END LIST*
D10*
%TO.P,J9,1,Pin_1*%
%TO.N,VCC3*%
X203500000Y-58460000D03*
D11*
%TO.P,J9,2,Pin_2*%
%TO.N,OUT3*%
X203500000Y-61000000D03*
%TO.P,J9,3,Pin_3*%
%TO.N,DIR3*%
X203500000Y-63540000D03*
%TD*%
D10*
%TO.P,J3,1,Pin_1*%
%TO.N,VCC1*%
X138200000Y-52000000D03*
D11*
%TO.P,J3,2,Pin_2*%
%TO.N,SCL1*%
X140740000Y-52000000D03*
%TO.P,J3,3,Pin_3*%
%TO.N,SDA1*%
X143280000Y-52000000D03*
%TO.P,J3,4,Pin_4*%
%TO.N,DIR1*%
X145820000Y-52000000D03*
%TD*%
D10*
%TO.P,J4,1,Pin_1*%
%TO.N,DIR2*%
X161500000Y-57200000D03*
D11*
%TO.P,J4,2,Pin_2*%
%TO.N,SCL2*%
X161500000Y-59740000D03*
%TO.P,J4,3,Pin_3*%
%TO.N,SDA2*%
X161500000Y-62280000D03*
%TO.P,J4,4,Pin_4*%
%TO.N,GPO2*%
X161500000Y-64820000D03*
%TD*%
D10*
%TO.P,J2,1,Pin_1*%
%TO.N,VCC1*%
X148500000Y-58420000D03*
D11*
%TO.P,J2,2,Pin_2*%
%TO.N,OUT1*%
X148500000Y-60960000D03*
%TO.P,J2,3,Pin_3*%
%TO.N,DIR1*%
X148500000Y-63500000D03*
%TD*%
D10*
%TO.P,J6,1,Pin_1*%
%TO.N,VCC2*%
X175000000Y-58460000D03*
D11*
%TO.P,J6,2,Pin_2*%
%TO.N,OUT2*%
X175000000Y-61000000D03*
%TO.P,J6,3,Pin_3*%
%TO.N,DIR2*%
X175000000Y-63540000D03*
%TD*%
D10*
%TO.P,J8,1,Pin_1*%
%TO.N,VCC3*%
X192700000Y-52000000D03*
D11*
%TO.P,J8,2,Pin_2*%
%TO.N,SCL3*%
X195240000Y-52000000D03*
%TO.P,J8,3,Pin_3*%
%TO.N,SDA3*%
X197780000Y-52000000D03*
%TO.P,J8,4,Pin_4*%
%TO.N,DIR3*%
X200320000Y-52000000D03*
%TD*%
D10*
%TO.P,J1,1,Pin_1*%
%TO.N,DIR1*%
X134500000Y-57200000D03*
D11*
%TO.P,J1,2,Pin_2*%
%TO.N,SCL1*%
X134500000Y-59740000D03*
%TO.P,J1,3,Pin_3*%
%TO.N,SDA1*%
X134500000Y-62280000D03*
%TO.P,J1,4,Pin_4*%
%TO.N,GPO1*%
X134500000Y-64820000D03*
%TD*%
D10*
%TO.P,J7,1,Pin_1*%
%TO.N,DIR3*%
X189500000Y-57200000D03*
D11*
%TO.P,J7,2,Pin_2*%
%TO.N,SCL3*%
X189500000Y-59740000D03*
%TO.P,J7,3,Pin_3*%
%TO.N,SDA3*%
X189500000Y-62280000D03*
%TO.P,J7,4,Pin_4*%
%TO.N,GPO3*%
X189500000Y-64820000D03*
%TD*%
D10*
%TO.P,J5,1,Pin_1*%
%TO.N,VCC2*%
X164700000Y-52000000D03*
D11*
%TO.P,J5,2,Pin_2*%
%TO.N,SCL2*%
X167240000Y-52000000D03*
%TO.P,J5,3,Pin_3*%
%TO.N,SDA2*%
X169780000Y-52000000D03*
%TO.P,J5,4,Pin_4*%
%TO.N,DIR2*%
X172320000Y-52000000D03*
%TD*%
D12*
%TO.N,DIR1*%
X148500000Y-63500000D02*
X143180000Y-63500000D01*
X143180000Y-63500000D02*
X141680000Y-62000000D01*
X140200000Y-57200000D02*
X134500000Y-57200000D01*
X141680000Y-62000000D02*
X141680000Y-58680000D01*
X150520000Y-63500000D02*
X148500000Y-63500000D01*
X151300000Y-62800000D02*
X151300000Y-53000000D01*
X150300000Y-52000000D02*
X145820000Y-52000000D01*
X150560000Y-63540000D02*
X151300000Y-62800000D01*
X150560000Y-63540000D02*
X150520000Y-63500000D01*
X141680000Y-58680000D02*
X140200000Y-57200000D01*
X151300000Y-53000000D02*
X150300000Y-52000000D01*
%TO.N,VCC1*%
X148500000Y-56500000D02*
X148500000Y-58420000D01*
X138200000Y-52000000D02*
X138200000Y-53800000D01*
X147100000Y-55100000D02*
X148500000Y-56500000D01*
X138200000Y-53800000D02*
X139500000Y-55100000D01*
X139500000Y-55100000D02*
X147100000Y-55100000D01*
%TO.N,DIR2*%
X161500000Y-57200000D02*
X165200000Y-57200000D01*
X177460000Y-63540000D02*
X175000000Y-63540000D01*
X174960000Y-63500000D02*
X175000000Y-63540000D01*
X171500000Y-63500000D02*
X174960000Y-63500000D01*
X179000000Y-53500000D02*
X179000000Y-62000000D01*
X172320000Y-52000000D02*
X177500000Y-52000000D01*
X177500000Y-52000000D02*
X179000000Y-53500000D01*
X165200000Y-57200000D02*
X171500000Y-63500000D01*
X179000000Y-62000000D02*
X177460000Y-63540000D01*
%TO.N,VCC2*%
X164700000Y-52000000D02*
X164700000Y-54200000D01*
X168960000Y-58460000D02*
X175000000Y-58460000D01*
X164700000Y-54200000D02*
X168960000Y-58460000D01*
%TO.N,DIR3*%
X204960000Y-63540000D02*
X203500000Y-63540000D01*
X206500000Y-62000000D02*
X204960000Y-63540000D01*
X192700000Y-57200000D02*
X194500000Y-59000000D01*
X205000000Y-52000000D02*
X206500000Y-53500000D01*
X194500000Y-62000000D02*
X196040000Y-63540000D01*
X200320000Y-52000000D02*
X205000000Y-52000000D01*
X189500000Y-57200000D02*
X192700000Y-57200000D01*
X194500000Y-59000000D02*
X194500000Y-62000000D01*
X206500000Y-53500000D02*
X206500000Y-62000000D01*
X196040000Y-63540000D02*
X203500000Y-63540000D01*
%TO.N,VCC3*%
X192700000Y-54200000D02*
X194000000Y-55500000D01*
X203500000Y-56500000D02*
X203500000Y-58460000D01*
X192700000Y-52000000D02*
X192700000Y-54200000D01*
X194000000Y-55500000D02*
X202500000Y-55500000D01*
X202500000Y-55500000D02*
X203500000Y-56500000D01*
%TD*%
M02*
